<svg width="800" height="800" xmlns="http://www.w3.org/2000/svg">
 <g id="Layer_1">
  <title>Layer 1</title>
  <path id="svg_1" d="m135.61649,147.12329" opacity="NaN" stroke="#ff7f00" fill="#3f7f00"/>
  <path stroke-width="3" d="m115.06854,106.0274c-5.47945,9.58904 -13.6245,23.32914 -20.54795,35.61643c-5.42159,9.62189 -14.03793,22.3058 -20.54794,35.61644c-5.70966,11.67421 -6.40582,22.09084 -8.21918,31.50685c-1.39503,7.24384 -4.10959,15.0685 -4.10959,24.65753c0,8.21919 0,10.95891 0,15.0685c0,4.10959 -0.62946,5.55275 0,8.21919c0.70376,2.98117 2.73972,6.8493 4.10959,8.21918c2.73972,2.73972 3.20204,4.53424 5.47945,8.21918c2.03697,3.2959 5.05829,4.36438 6.84931,6.8493c1.13275,1.57162 3.68964,4.7381 5.47945,5.47946c2.53117,1.04846 5.07214,2.11145 9.58904,4.10959c5.16525,2.28494 6.68295,2.04581 10.9589,2.73972c2.70435,0.43887 6.84932,1.36987 10.95891,1.36987c1.36986,0 5.53241,0.76001 10.9589,0c9.87637,-1.38324 15.50488,-4.41275 23.28767,-8.21918c8.87376,-4.34003 15.74553,-9.89505 20.54796,-13.69864c8.38707,-6.64267 10.63159,-11.52863 15.06848,-13.69864c3.89139,-1.90323 3.3351,-2.94653 6.84932,-5.47945c1.11128,-0.80096 4.34669,-3.90785 5.47945,-5.47945c1.79103,-2.48492 2.89845,-6.79977 4.10959,-10.95891c1.57913,-5.42284 3.4917,-9.33426 5.47946,-16.43835c2.24525,-8.02435 2.41284,-12.38998 4.10959,-20.54794c2.30023,-11.05951 2.73973,-23.28767 2.73973,-34.24658c0,-8.21918 0,-19.17809 0,-27.39726c0,-5.47945 0,-10.9589 0,-15.06849c0,-4.10959 -0.80244,-4.91203 -2.73973,-6.84931c-1.93729,-1.93728 0.41995,-4.73809 -1.36986,-5.47945c-1.26559,-0.52423 -2.73973,-4.10959 -4.1096,-5.47945c-1.36986,-1.36986 -2.21548,-4.21387 -2.73972,-5.47945c-0.74136,-1.78982 -2.31856,-1.62467 -4.10959,-4.10959c-1.13275,-1.57161 -2.94829,-0.32141 -5.47946,-1.36987c-1.78981,-0.74136 -3.86815,-4.7757 -6.8493,-5.47945c-2.66644,-0.62946 -4.18288,-2.11026 -6.84932,-2.73972c-2.98117,-0.70376 -5.05949,-1.99837 -6.84932,-2.73973c-2.53117,-1.04844 -8.21918,0 -10.95889,0c-2.73973,0 -5.47946,0 -6.84932,0c-2.73973,0 -5.47946,0 -6.84932,0c-1.36986,0 -4.14624,-0.31473 -5.47945,0c-2.98117,0.70376 -5.27773,1.60699 -6.84932,2.73973c-2.48492,1.79103 -5.688,1.69128 -8.21918,2.73972c-1.78982,0.74136 -1.36987,1.36987 -2.73973,2.73973c-1.36986,1.36986 -2.73972,1.36986 -4.10959,2.73972c0,0 -1.36986,0 -2.73972,1.36987c-1.36987,1.36986 -1.36987,2.73972 -1.36987,4.10959l0,0" id="svg_2" stroke="#ff7f00" fill="none"/>
  <path d="m279.45212,97.80822c0,5.47945 -0.78012,16.45688 0,32.87672c1.3714,28.86473 5.47943,69.86301 5.47943,89.04109c0,16.43835 0,31.50685 0,43.83562c0,8.21918 1.36987,21.91782 1.36987,30.13699c0,9.58905 1.3447,18.78357 2.73972,26.0274c1.03619,5.38055 -1.04401,15.65863 4.10959,31.50684c1.8945,5.82593 2.73975,10.95889 2.73975,16.43835c0,8.21918 0,15.06848 0,17.80823c0,4.10959 0,5.47946 0,6.8493c0,1.36987 0,2.73975 0,2.73975c0,1.36984 0,2.73972 0,2.73972c0,-1.36987 -0.0896,-2.71094 -1.36987,-6.8493c-2.94739,-9.52725 -3.95044,-20.56522 -6.8493,-46.57535c-2.59726,-23.30402 -1.65506,-42.48962 -2.73975,-67.12329c-2.05679,-46.71104 -4.79318,-73.90868 -5.47943,-84.93152c-0.59583,-9.57051 -2.05246,-19.09311 -2.73975,-27.39726c-1.01688,-12.28676 -0.69492,-20.58128 -1.36984,-27.39726c-0.68829,-6.95096 -0.70038,-10.99995 -1.36987,-16.43835c-0.69009,-5.60577 -2.87048,-10.92787 -4.10959,-16.43836c-1.53241,-6.81479 -2.04584,-9.42267 -2.73975,-13.69862c-0.43887,-2.70435 -0.931,-6.8847 -1.36984,-9.58904c-0.69391,-4.27596 -1.36987,-8.21918 -1.36987,-9.58904c0,-1.36987 0,-4.10959 0,-5.47945c0,-1.36987 0,-2.73972 0,-4.10959c0,-1.36986 -0.41995,-1.99836 1.36987,-2.73973c1.26556,-0.52422 2.01953,-0.20459 2.73972,-1.36986c1.61035,-2.60563 3.86816,-2.03597 6.84933,-2.73973c5.33286,-1.25891 20.49106,-0.68388 32.87671,-1.36986c13.67764,-0.75754 27.41519,-0.16898 41.09589,1.36986c10.97498,1.23449 25.8241,5.47275 39.72601,6.84932c5.45279,0.53993 12.35956,2.2376 16.43835,2.73972c5.60577,0.6901 6.55319,-0.79445 10.95892,2.73973c2.38934,1.91667 4.75925,2.94431 5.47943,4.10959c1.61038,2.60565 4.7381,0.94991 5.47946,2.73972c0.52423,1.26559 0.10428,2.2155 1.36987,2.73973c1.78979,0.74136 3.36823,3.68964 4.10959,5.47945c0.52423,1.26559 3.36823,5.0595 4.10959,6.84932c0.52423,1.26559 1.36984,4.10959 1.36984,4.10959c0,2.73972 0,4.10959 0,5.47945c0,0 2.14435,2.94654 -1.36984,5.47945c-2.2226,1.60196 -4.10959,4.10958 -6.84933,8.21918c-2.73972,4.10959 -7.4469,7.45161 -16.43835,15.0685c-8.86911,7.51324 -17.07593,17.34615 -28.76712,26.0274c-10.37558,7.70438 -18.11331,16.06026 -23.28766,20.54794c-5.8541,5.07722 -9.47418,11.40948 -19.1781,17.80821c-6.15857,4.06094 -12.14832,7.24466 -17.8082,9.58905c-4.00214,1.65775 -6.93976,3.942 -9.58905,5.47945c-4.27188,2.47908 -11.0322,6.21985 -13.69864,6.84932c-5.96231,1.40752 -8.43738,4.94609 -12.32877,6.8493c-4.43689,2.17001 -5.47943,4.10959 -6.8493,4.10959c-1.36987,0 -2.73972,1.36987 -4.10959,2.73973c-1.36987,1.36986 -2.73972,1.36986 -4.10959,2.73973c0,0 0,0 -1.36987,0c-1.36987,0 -1.36987,0 0,0c1.36987,0 0.40121,-0.40123 1.36987,-1.36987c0.96866,-0.96864 3.14093,-0.40121 4.10959,-1.36986c0.96863,-0.96864 1.36987,-1.36986 1.36987,-1.36986l1.36984,-1.36987l1.36987,0l1.36987,0" id="svg_4" stroke="#ff7f00" fill="none"/>
  <path stroke-width="3" d="m434.24665,258.08219c6.8493,0 26.1629,-3.11879 39.72601,-5.47945c16.6933,-2.90546 27.58557,-5.77612 38.35614,-8.21918c8.44916,-1.9165 13.77197,-4.85002 16.43835,-5.47946c2.9812,-0.70375 4.10962,-4.10959 5.47949,-5.47945c0,0 0,0 0,-1.36987c0,-1.36986 0,-2.73972 0,-4.10959c0,0 -1.36987,-2.73972 -2.73975,-4.10959c-1.36987,-1.36986 -0.57379,-3.31349 -2.73975,-5.47945c-2.16589,-2.16592 -4.43097,-4.31815 -5.47943,-6.84932c-1.48273,-3.57962 -3.90784,-2.97684 -5.47943,-4.10959c-2.48492,-1.79106 -5.27777,-4.34669 -6.84937,-5.47945c-2.48486,-1.791 -5.55273,-0.74039 -8.21918,-1.36986c-2.98114,-0.70377 -6.92004,-0.49217 -12.32874,-1.36987c-8.55188,-1.38777 -16.37439,-2.05611 -27.39728,-1.36986c-5.46887,0.34047 -9.58905,0 -13.69861,1.36986c-4.10962,1.36987 -5.51489,0.93103 -8.21918,1.36987c-4.276,0.69389 -6.32507,1.47414 -6.8493,2.73972c-1.48273,3.57964 -5.73431,2.31857 -8.21921,4.10959c-1.57162,1.13275 -1.62466,2.31857 -4.10959,4.10959c-1.57162,1.13275 -1.60699,2.53799 -2.73972,4.10959c-1.79105,2.48492 -4.78555,6.68295 -5.47946,10.95891c-0.21942,1.35217 -1.99835,5.05951 -2.73972,6.84932c-2.09686,5.06236 0,6.84932 -1.36987,10.95891c0,0 0,1.36986 0,4.10959c0,1.36986 0,2.73972 0,4.10959c0,1.36986 0,2.73972 0,2.73972c1.36987,1.36987 1.56754,2.64952 2.73972,5.47945c1.65775,4.00214 3.71799,5.76941 6.84933,9.58905c3.68466,4.49454 9.21866,9.90253 15.06851,16.43835c3.87604,4.33054 10.95886,9.58905 17.80817,16.43835c5.47949,5.47946 10.01477,8.95197 12.3288,10.95892c3.27252,2.83823 6.21741,4.94031 9.58905,6.8493c4.91498,2.78281 11.71112,4.04819 16.43835,5.47946c5.24432,1.58786 10.79254,2.04581 15.06848,2.73972c4.05658,0.65829 10.95892,1.36987 17.80823,1.36987c5.47943,0 8.21918,0 10.95892,0c5.47943,0 10.95886,0 13.69861,0c4.10956,0 8.21918,0 10.95892,0c2.73969,0 2.73969,0 4.10956,0c1.36987,0 2.73975,0 4.10962,0l0,0l1.36981,0" id="svg_5" stroke="#ff7f00" fill="none"/>
  <path stroke-width="3" d="m593.15076,403.28769c0,-24.65756 5.52234,-64.56741 9.58905,-89.04111c4.14044,-24.91736 7.24701,-54.05951 12.32874,-72.60274c2.42877,-8.86258 6.23138,-14.81372 8.21918,-21.91782c2.24524,-8.02435 5.95227,-18.05064 8.21918,-24.65753c2.9823,-8.69194 7.19446,-16.27464 10.95892,-24.65753c3.02197,-6.72954 4.58276,-16.1758 8.21918,-23.28767c4.74945,-9.28876 6.1554,-14.90213 6.8493,-19.17809c0.87775,-5.4087 3.40582,-9.34762 4.10956,-12.32877c0.62946,-2.66644 1.84412,-5.07597 4.10962,-8.21918c1.79102,-2.48492 2.73975,-2.73973 2.73975,-2.73973c0,-1.36986 0,-2.73972 0,-4.10959c0,-1.36986 1.36987,-1.36986 1.36987,-1.36986c0,-1.36987 0.84558,-2.84401 1.36981,-4.10959c0.74139,-1.78982 1.77112,-0.40122 2.73975,-1.36987c0.96863,-0.96864 0,-2.73972 0,-1.36987c0,1.36987 0,1.36987 0,4.10959c0,2.73973 1.14392,6.85866 1.36987,9.58904c0.68726,8.30416 3.46173,20.60142 5.47943,41.09589c3.11316,31.62086 7.87933,56.18987 9.58905,76.71233c2.28595,27.43886 4.79626,39.74022 5.47943,56.16438c0.68555,16.48108 5.47949,23.28769 5.47949,31.50687c0,6.8493 0,12.32877 0,13.69861c0,5.47946 0,6.84933 0,9.58905c0,5.47946 1.36987,10.95889 1.36987,15.06848c0,6.84933 2.70203,13.21576 4.10956,19.1781c1.57367,6.66608 2.03601,12.08731 2.73975,15.06848c0.31476,1.33322 0,2.73972 0,4.10959c0,1.36987 0,1.36987 1.36987,1.36987c1.36981,0 1.36981,0 1.36981,-2.73975c0,0 1.59998,-2.63058 4.10962,-8.21918c12.08807,-26.91812 31.20093,-73.57672 42.46576,-105.47943c9.08771,-25.73701 15.05896,-40.71629 20.54791,-63.0137c3.66089,-14.87157 5.35657,-34.6319 9.58905,-47.94521c4.08759,-12.85748 4.81,-19.21913 5.47949,-24.65755c0.69006,-5.60576 1.69122,-8.42773 2.73969,-10.9589c0.74139,-1.78981 1.36987,-2.73972 1.36987,-4.10959c0,-1.36986 0,-1.36986 0,-2.73972c0,-1.36987 -1.36987,-1.36987 -1.36987,-2.73972l-1.36987,-1.36987l-1.36981,0" id="svg_6" stroke="#ff7f00" fill="none"/>
  <path d="m131.5069,692.3288c2.73973,-15.06854 11.76707,-58.72388 20.54794,-100c7.54681,-35.47522 12.51778,-59.12634 16.43835,-76.71234c5.28192,-23.69241 12.36339,-44.14066 16.43835,-58.90411c3.11409,-11.28226 7.44925,-26.28241 12.32877,-39.72604c3.5594,-9.80655 4.58246,-20.79037 6.84932,-27.39725c2.98227,-8.69193 5.47946,-16.43835 9.58905,-27.39728c4.10959,-10.95889 5.47945,-17.8082 5.47945,-23.28766c0,-4.10959 1.99837,-7.79922 2.73973,-9.58905c0.52422,-1.26556 0.62849,-2.31976 1.36986,-4.10959c0.52422,-1.26556 -1.26559,-2.21548 0,-2.73972c1.78981,-0.74136 1.36986,1.36987 1.36986,2.73972c0,1.36987 0,2.73975 0,4.10959c0,2.73975 1.08199,2.8472 2.73973,6.84933c1.1722,2.82993 3.53038,9.22815 8.21918,20.54794c4.97322,12.00644 9.40515,26.85596 16.43835,43.8356c6.63098,16.00858 11.58871,32.66077 15.06848,43.83563c3.35849,10.78537 5.06888,22.5206 10.95892,36.9863c5.3186,13.06232 12.82993,35.47601 16.43835,49.31506c3.18649,12.22095 7.95584,25.54083 12.32877,36.98633c5.5744,14.59021 7.83832,27.49713 12.32877,43.83557c3.79016,13.79047 11.28827,23.75043 15.06848,32.87671c2.67303,6.45331 2.29453,11.80823 6.84933,19.1781c3.05548,4.94385 2.1723,7.65173 4.10959,9.58905c0.96863,0.96863 1.36984,1.36987 1.36984,1.36987l-1.36984,0" id="svg_8" stroke-width="3" stroke="#0000ff" fill="none"/>
  <path d="m105.4795,549.86304c17.80822,0 43.82235,0.15698 75.34246,2.73969c17.80118,1.45856 41.41429,2.89972 65.75343,6.84937c12.82784,2.08167 26.13332,6.69916 36.98631,8.21918c9.87634,1.38324 16.21301,4.10132 28.76712,5.47943c6.80841,0.74738 10.95889,0 16.43835,0c5.47943,0 10.11041,-1.25128 16.43835,1.36987c1.78979,0.74139 5.47943,1.36987 9.58902,2.73969c4.10962,1.36987 4.10962,2.73975 6.84933,2.73975c1.36987,0 4.10959,1.36987 5.47946,1.36987c0,0 1.36984,0 2.73972,0l1.36987,0l0,0" id="svg_10" stroke-width="3" stroke="#0000ff" fill="none"/>
  <path d="m487.6713,389.58905c8.21918,0 27.39725,0 49.31503,0c27.39728,0 43.7962,0.68442 61.64386,1.36987c10.95087,0.42056 21.91779,0 28.76715,0c4.10956,0 8.21918,0 12.32874,0c2.73975,0 5.47943,0 8.21918,0c1.36987,0 2.73975,0 4.10962,0l0,0l1.36981,0l1.36987,0" id="svg_11" stroke-width="3" stroke="#0000ff" fill="none"/>
  <path d="m572.60278,406.0274c0,8.21918 0,26.0274 0,43.8356c0,17.80823 0,36.98633 0,49.31509c0,9.58902 0,17.80823 0,21.91779c0,5.47949 0,9.58905 0,12.3288c0,4.10956 0,9.58905 0,15.06848c0,4.10956 0,6.8493 0,15.06848c0,2.73975 0,8.21918 0,12.3288c0,5.47943 0,10.95886 0,16.43835c0,2.73969 0.94415,5.58936 0,9.58899c-0.70374,2.9812 -1.36987,4.10962 -1.36987,6.84937c0,2.73969 -0.67596,5.31305 -1.36987,9.58905c-0.21942,1.35211 0,2.73969 0,6.8493c0,0 0,1.36987 0,2.73969c0,1.36987 -0.40118,1.77112 -1.36981,2.73975c-0.96863,0.96863 0,2.73975 0,4.10962c0,1.36981 0,1.36981 0,2.73969c0,2.73975 0,6.8493 0,9.58905c0,1.36987 0,2.73975 0,5.47943c0,2.73975 0,5.47949 0,6.84937c0,2.73969 0,4.10956 0,4.10956c0,1.36987 0,2.73975 0,4.10962c0,1.36981 0,1.36981 0,4.10956c0,1.36987 0,2.73975 0,2.73975c0,1.36987 0,2.73969 0,4.10956c0,1.36987 0,1.36987 0,2.73975c0,1.36987 0,2.73975 0,4.10956c0,0 0,1.36987 0,2.73975c0,2.73975 0,2.73975 0,4.10962l0,1.36981" id="svg_12" stroke-width="3" stroke="#0000ff" fill="none"/>
  <path d="m449.31512,692.3288c5.47946,0 16.43835,0 28.76712,0c21.91782,0 39.72604,0 56.1644,0c13.69861,0 21.91779,0 35.61639,0c10.95892,0 20.48401,0.68359 31.5069,1.36981c8.20331,0.51068 19.15125,1.57263 28.76709,2.73975c13.66669,1.65881 22.02032,0.71185 32.87671,2.73975c5.55212,1.03711 10.83258,2.04962 16.43835,2.73975c5.43842,0.66949 10.95892,0 13.69867,0c4.10956,0 6.8493,0 8.21918,0c1.36987,0 2.73969,0 4.10956,0c1.36987,0 4.10962,0 6.8493,0c0,0 2.73975,0 4.10962,0c1.36987,0 2.73975,0 5.47943,0l1.36987,0l0,0l1.36987,0" id="svg_13" stroke-width="3" stroke="#0000ff" fill="none"/>
  <path d="m72.60278,660.8219c0,1.36987 1.27489,8.50391 4.10959,19.1781c4.57079,17.21161 18.29741,46.37988 27.39726,69.86304c5.79343,14.95056 13.73638,37.55762 21.91781,54.79449c4.73571,9.97736 10.7913,17.89862 12.32877,20.54797c2.47906,4.27185 3.14095,5.88068 4.10959,6.8493c0.96864,0.96863 1.36986,1.36987 1.36986,1.36987c-1.36986,0 -1.36986,0 -2.73973,0c-1.36986,0 -2.73972,0 -4.10959,-1.36987c0,0 -2.1777,-3.0589 -5.47945,-8.21918c-4.72739,-7.38843 -13.81206,-14.62421 -26.0274,-36.98633c-9.14678,-16.74463 -18.30466,-34.89136 -26.0274,-57.53424c-5.46973,-16.03717 -7.06906,-27.34692 -8.21918,-32.87671c-1.69675,-8.15796 -1.86201,-13.76935 -2.73973,-19.1781c-0.69389,-4.27594 -2.03596,-6.60785 -2.73972,-9.58899c-0.94421,-3.99969 0,-6.84937 0,-9.58905c0,-1.36987 0,-2.73975 0,-4.10962c0,-1.36987 0,-1.36987 0,-2.73969c0,-2.73975 0.40122,-3.14099 1.36987,-4.10962c0.96864,-0.96863 1.36986,-2.73975 1.36986,-4.10956c0,-1.36987 0,-1.36987 0,-2.73975c0,-2.73975 1.77109,-3.14099 2.73973,-4.10962c0.96861,-0.96863 0,-2.73969 1.36986,-4.10956c1.36987,-1.36987 4.10959,-1.36987 4.10959,-1.36987c10.95891,0 28.76713,0 43.83562,0c9.58905,0 20.54794,0 34.24658,0c9.58904,0 14.4509,2.67834 19.17809,4.10962c1.31108,0.39697 4.21387,0.84558 5.47945,1.36981c1.78981,0.74139 0.84563,2.84399 1.36986,4.10962c0.74136,1.78979 1.36987,1.36987 1.36987,2.73975c0,2.73969 0,4.10956 -1.36987,6.8493c-1.36986,2.73969 -2.73972,6.8493 -4.10959,8.21918c-1.36986,1.36987 -0.40683,4.95044 -4.10959,8.21918c-2.29634,2.02716 -1.94363,4.68335 -4.10959,6.8493c-2.16594,2.16595 -4.3644,5.05829 -6.8493,6.8493c-6.28639,4.53101 -10.12466,12.01306 -15.0685,15.06848c-3.68492,2.2774 -7.32355,3.70618 -9.58905,6.84937c-1.79102,2.48486 -5.47943,5.47943 -10.9589,8.21918c-5.47944,2.73969 -9.76988,6.5141 -15.06849,9.58899c-4.2719,2.47906 -6.44582,4.58386 -9.58904,6.84937c-2.48492,1.79102 -4.10959,2.73969 -5.47945,2.73969c0,0 -0.40122,0.40125 -1.36987,1.36987c-0.96864,0.96863 -1.36986,-1.36987 -1.36986,-1.36987c0,-1.36987 1.77108,-3.14093 2.73972,-4.10956c1.93728,-1.93726 7.144,-1.86414 16.43835,-5.47949c14.27368,-5.55225 26.05499,-12.25342 41.09589,-17.80817c10.97932,-4.05475 20.60974,-8.01154 30.13699,-10.95892c8.27676,-2.56055 19.17809,-5.47943 26.0274,-6.8493c6.8493,-1.36981 9.58904,-1.36987 15.06848,-1.36987c5.47946,0 8.21918,0 9.58905,0c1.36986,0 1.36986,1.36987 1.36986,2.73969c0,1.36987 -0.62849,2.31982 -1.36986,4.10962c-0.52423,1.26563 -0.57378,0.57379 -2.73973,2.73975c-2.16592,2.16589 -2.5524,4.31067 -5.47945,6.8493c-5.17433,4.48767 -11.05211,12.21844 -19.17809,19.1781c-6.06665,5.19592 -9.21442,7.25153 -15.0685,12.32874c-5.17435,4.48767 -10.58427,9.99127 -16.43835,15.06848c-5.17435,4.48767 -8.96059,6.19006 -15.0685,10.95892c-6.29588,4.91565 -6.64758,5.71655 -8.21918,6.8493c-2.48492,1.79102 -4.10959,2.73975 -4.10959,4.10962c0,0 -1.77109,-0.96863 -2.73973,0c-0.9686,0.96863 -0.40121,1.77106 -1.36986,2.73969c-0.96864,0.96863 -0.94991,1.99835 -2.73973,2.73975c-1.26558,0.52423 -1.77107,0.40125 -2.73972,1.36987c-0.96864,0.96863 -1.36987,2.73969 -1.36987,2.73969l-1.36986,0" id="svg_17" stroke-width="3" stroke="#ff00ff" fill="none"/>
  <path d="m287.6713,656.71234c2.73972,5.47943 13.39517,19.94269 30.13696,50.68494c17.57971,32.28082 27.11954,50.81427 34.24658,65.75342c5.2757,11.05847 9.8497,20.38568 12.32877,24.65753c1.53748,2.64935 2.73975,2.73975 2.73975,4.10962c0,1.36981 0,2.73969 1.36984,2.73969c1.36987,0 2.51202,-0.00476 2.73975,-5.47943c0.68552,-16.48108 13.73138,-52.04443 31.50684,-108.21918c8.23438,-26.02258 12.96054,-45.35858 16.43835,-60.27399c2.26459,-9.71222 4.10959,-16.43835 4.10959,-26.0274c0,-1.36987 0,-5.47943 0,-6.8493c0,0 0,0 0,1.36987c0,1.36987 0,2.73969 0,4.10956c0,0 -0.51236,4.1203 0,16.43835c0.68552,16.48108 6.83093,43.35919 9.58905,67.12329c2.36896,20.41095 4.16284,34.35272 5.47943,42.46576c1.38779,8.55188 4.07196,11.84595 5.47946,17.80823c0.94418,3.99969 1.33221,6.36646 2.73972,12.3288c0.94418,3.99963 1.15045,8.23688 1.36987,9.58899c0.69391,4.276 1.36987,5.47949 1.36987,6.84937c0,1.36981 0,2.73969 0,2.73969c0,-1.36987 -0.61874,-5.65295 2.73972,-16.43835c10.43924,-33.5246 34.24658,-104.10956 43.83563,-134.24658c9.58902,-30.13696 17.08975,-51.49738 19.17807,-63.01367c0.48883,-2.6958 0,-5.47943 0,-5.47943l0,-2.73975l0,0l0,1.36987" id="svg_18" stroke-width="3" stroke="#ff00ff" fill="none"/>
  <path d="m586.30145,593.69861c12.32874,-1.36981 39.63293,-2.19336 60.27393,-4.10956c25.95184,-2.40918 43.54834,-2.72638 53.42468,-4.10962c5.42645,-0.76001 12.16235,-2.04578 16.43835,-2.73969c1.35217,-0.21942 2.73975,1.36987 2.73975,0c0,-1.36987 -1.36987,1.36987 -1.36987,1.36987c-1.36987,1.36981 -4.34674,2.53796 -5.47949,4.10956c-1.79102,2.48492 -2.56409,4.23224 -5.47943,8.21918c-5.17737,7.08038 -14.86792,16.88129 -28.76709,35.61646c-16.52655,22.27667 -32.1806,42.03607 -42.46576,58.90411c-7.34229,12.04169 -15.56183,27.06342 -21.91785,36.98627c-5.95697,9.29993 -9.34851,16.57251 -10.95886,19.1781c-0.72015,1.16528 0.96863,3.14099 0,4.10962c-0.96863,0.96863 -2.73975,0 -2.73975,1.36981c0,1.36987 -0.80243,2.1723 -2.73975,4.10962c-0.96863,0.96863 -1.99835,0.94995 -2.73969,2.73975c-1.0484,2.53113 -0.62848,2.31976 -1.36987,4.10956c-0.52423,1.26563 -1.36987,1.36987 -1.36987,2.73975c0,1.36987 -0.96863,2.3385 0,1.36987c0.96863,-0.96863 1.42291,-2.08148 5.47943,-2.73975c8.55188,-1.38782 20.19733,-4.78125 38.3562,-6.8493c19.05487,-2.1701 32.87671,-1.36987 49.31506,-1.36987c8.21918,0 17.86127,-0.65826 21.91779,0c4.276,0.69391 6.72296,2.04962 12.3288,2.73975c4.0788,0.50214 4.10956,0 5.47943,0c1.36987,0 2.73975,0 4.10956,0l0,0" id="svg_19" stroke-width="3" stroke="#ff00ff" fill="none"/>
 </g>
</svg>